<svg version="1.1" id="Layer_1" xmlns="http://www.w3.org/2000/svg" x="0" y="0" viewBox="0 0 563.8 118.6" xml:space="preserve"><style type="text/css">.st0 everything-stroke{fill:none;stroke:#a8216b;stroke-width:2;stroke-miterlimit:10}</style><path class="st0 everything-stroke" d="M15 22.4h53.8v11.4h-41v18.9h36.4V64H27.7v19.5h41.6v11.4H15V22.4zM156.1 22.4l-25.3 35.4 26.3 37.1h-15L123 67.2l-19.1 27.7H89.3L115.5 58 90.3 22.4h15l18 26.3 18.1-26.3h14.7zM204.9 21.8h11.8l31.9 73.1h-13.5l-7.4-17.5h-34.3l-7.5 17.5H173l31.9-73.1zm18.3 44.3l-12.5-29-12.4 29h24.9zM263.7 58.8v-.2c0-20.6 15.4-37.5 37.4-37.5 13.4 0 21.5 4.7 28.4 11.3l-8.2 9.4c-5.8-5.4-12-9-20.3-9-13.8 0-23.9 11.4-23.9 25.6v.2c0 14.2 10.1 25.7 23.9 25.7 8.9 0 14.6-3.5 20.8-9.3l8.2 8.3c-7.6 7.9-15.9 12.8-29.4 12.8-21.2 0-36.9-16.4-36.9-37.3zM371.5 34.2h-23V22.4h58.9v11.8h-23v60.7h-12.8V34.2zM431.2 22.4H444v60.9h38.1v11.6h-50.9V22.4zM513.6 66.3l-28.8-43.9h15.1l20.2 32 20.5-32h14.6L526.5 66v28.9h-12.8V66.3z"/></svg>