<svg version="1.1" id="Layer_1" xmlns="http://www.w3.org/2000/svg" x="0" y="0" viewBox="0 0 418.6 19" xml:space="preserve"><style type="text/css">.st0{fill:#fff}</style><path class="st0" d="M5.8 3.3H0v-3h14.9v3H9.1v15.4H5.8V3.3zM21 .3h3.2V8H33V.3h3.2v18.4H33V11h-8.8v7.8H21V.3zM43.6.3h13.7v2.9H46.9V8h9.2v2.9h-9.2v4.9h10.5v2.9H43.6V.3zM69.3 11.5L62 .3h3.8L71 8.4 76.2.3h3.7l-7.3 11.1v7.3h-3.3v-7.2zM84 6.4c1.6-.3 2.4-1.1 2.3-2.5h-1.4V.3h3.5v3.1c0 2.9-1.4 4.2-4.1 4.4L84 6.4zM95.1.3h8.2c2.3 0 4.1.7 5.3 1.8 1 1 1.5 2.4 1.5 4v.1c0 3-1.8 4.8-4.4 5.6l5 7h-3.8l-4.5-6.4h-4.1v6.4h-3.2V.3zm7.9 9.1c2.3 0 3.8-1.2 3.8-3.1 0-2-1.4-3.1-3.8-3.1h-4.7v6.2h4.7zM116.7.3h13.7v2.9H120V8h9.2v2.9H120v4.9h10.5v2.9h-13.8V.3zM147.5.3h13.7v2.9h-10.4V8h9.2v2.9h-9.2v4.9h10.5v2.9h-13.8V.3zM183.3.3l-6.4 9 6.7 9.4h-3.8l-4.9-7-4.8 7h-3.7l6.7-9.4-6.4-9h3.8L175 7l4.6-6.7h3.7zM195.7.2h3l8.1 18.5h-3.4l-1.9-4.4h-8.7l-1.9 4.4h-3.3L195.7.2zm4.6 11.2L197.1 4l-3.2 7.4h6.4zM210.6 9.6c0-5.3 3.9-9.6 9.5-9.6 3.4 0 5.4 1.2 7.2 2.9l-2.1 2.4C223.7 3.9 222.1 3 220 3c-3.5 0-6.1 2.9-6.1 6.5v.1c0 3.6 2.6 6.5 6.1 6.5 2.3 0 3.7-.9 5.3-2.4l2.1 2.1c-1.9 2-4 3.3-7.5 3.3-5.3-.1-9.3-4.2-9.3-9.5zM238 3.3h-5.8v-3h14.9v3h-5.8v15.4H238V3.3zM253.2.3h3.2v15.5h9.7v2.9h-12.9V.3zM274.1 11.5L266.8.3h3.8l5.1 8.1 5.2-8.1h3.7l-7.3 11.1v7.3H274v-7.2zM300.6.3h3.2v15.5h9.7v2.9h-12.9V.3zM319.7.3h3.2v18.4h-3.2V.3zM330.5.3h3.2v9.3l8.8-9.3h4l-7.7 7.9 8 10.5h-3.9l-6.3-8.3-2.9 2.9v5.3h-3.2V.3zM352.3.3H366v2.9h-10.4V8h9.2v2.9h-9.2v4.9h10.5v2.9h-13.8V.3zM382.8 10.9V.3h3.2v10.5c0 3.4 1.8 5.2 4.7 5.2 2.9 0 4.6-1.7 4.6-5.1V.3h3.2v10.4c0 5.5-3.1 8.3-7.9 8.3-4.8 0-7.8-2.7-7.8-8.1zM404.4 16l1.9-2.3c1.8 1.5 3.6 2.4 5.8 2.4 2 0 3.3-.9 3.3-2.3v-.1c0-1.3-.7-2-4.2-2.8-3.9-.9-6.1-2.1-6.1-5.5 0-3.2 2.6-5.3 6.3-5.3 2.7 0 4.8.8 6.7 2.3l-1.7 2.4c-1.7-1.2-3.3-1.9-5-1.9-1.9 0-3 1-3 2.2v.1c0 1.4.8 2.1 4.4 2.9 3.9.9 5.9 2.3 5.9 5.4v.1c0 3.4-2.7 5.5-6.6 5.5-2.9-.1-5.5-1.1-7.7-3.1z"/></svg>