<svg version="1.1" id="Layer_1" xmlns="http://www.w3.org/2000/svg" x="0" y="0" viewBox="0 0 281.6 80" xml:space="preserve"><style type="text/css">.st0{fill:none;stroke:#fff;stroke-width:2;stroke-miterlimit:10}.st1{fill:#b43e80}.st2{fill:#ed3a66}.st3{fill:#fbac40}.st4{fill:#b02c4e}.st5{fill:#45a4a6}.st6{fill:#fff}.st7{fill:#b02a4c}.st8{fill:#633338}.st9{fill:#b12b31}.st10{font-family:&amp;apos;Gotham-Medium&amp;apos;}.st11{font-size:11.6533px}.st12{letter-spacing:1}</style><g id="XMLID_221_"><g id="XMLID_1257_"><path id="XMLID_1256_" class="st0" d="M1 1h279.6v78H1z"/><path id="XMLID_1255_" class="st0" d="M107 1v78"/></g><g id="XMLID_1271_"><g id="XMLID_1272_"><path id="XMLID_1282_" class="st1" d="M23.6 63.8l25-46.7 25.1 46.7z"/><path id="XMLID_1281_" class="st2" d="M33.4 63.8l25-46.7 25 46.7z"/><path id="XMLID_1280_" class="st3" d="M43.7 63.8l25.1-46.7 25 46.7z"/><path id="XMLID_1279_" class="st4" d="M33.4 63.8l20.1-37.5 20.1 37.5z"/><path id="XMLID_1278_" class="st5" d="M13 63.8l25-46.7 25.1 46.7z"/><path id="XMLID_1277_" class="st6" d="M63.6 26.9L53.5 45.7 43.4 26.9 23.5 63.8h9.7L43.4 45l5.2 9.8 4.9 9L63.6 45l10.2 18.8h9.7z"/><path id="XMLID_1276_" class="st7" d="M33.4 63.8l10-18.7 10.1 18.7z"/><path id="XMLID_1275_" class="st8" d="M43.7 63.8l4.9-9.1 4.9 9.1z"/><path id="XMLID_1274_" class="st9" d="M53.5 63.8l10.1-18.7 10 18.7z"/><path id="XMLID_1273_" class="st8" d="M53.5 63.8l4.9-9.1 4.9 9.1z"/></g></g><text transform="translate(127.95 24.925)" id="XMLID_1283_"><tspan x="0" y="0" class="st6 st10 st11 st12">THE MILLENNIAL </tspan><tspan x="0" y="17.8" class="st6 st10 st11 st12">RELATIONSHIP TO </tspan><tspan x="0" y="35.6" class="st6 st10 st11 st12">SERVICE BRANDS</tspan></text></g></svg>