<svg version="1.1" id="Layer_1" xmlns="http://www.w3.org/2000/svg" x="0" y="0" viewBox="0 0 569.3 363.2" xml:space="preserve"><style type="text/css">.st0{opacity:.5}.st1{fill:#a8216b}.st2{fill:none;stroke:#a8216b;stroke-width:2;stroke-miterlimit:10}</style><g id="XMLID_328_" class="st0"><path id="XMLID_448_" class="st1" d="M26.3 14H1V1h64.8v13H40.5v66.9H26.3V14z"/><path id="XMLID_446_" class="st1" d="M92.1 1h14v33.2h38.1V1h14v79.9h-14V47.2h-38.1v33.7h-14V1z"/><path id="XMLID_439_" class="st1" d="M190.2 1h59.2v12.6h-45.2v20.8h40.1V47h-40.1v21.5H250v12.6h-59.8V1z"/><path id="XMLID_437_" class="st1" d="M301.6 49.4L269.9 1h16.7l22.3 35.3L331.4 1h16.1l-31.7 48.1v31.8h-14.2V49.4z"/><path id="XMLID_432_" class="st1" d="M365.4 27.4c7-1.3 10.3-4.8 9.8-10.7h-5.9V1h15.2v13.4c0 12.7-6 18-17.6 18.9l-1.5-5.9z"/><path id="XMLID_352_" class="st1" d="M413.4 1H449c10 0 17.9 3 23.1 8 4.2 4.3 6.6 10.3 6.6 17.2v.2c0 13.1-7.9 21-18.9 24.2l21.6 30.2h-16.7L445 53h-17.6v27.9h-14V1zm34.5 39.6c10 0 16.4-5.3 16.4-13.4V27c0-8.6-6.2-13.2-16.6-13.2h-20.4v26.8h20.6z"/><path id="XMLID_330_" class="st1" d="M507.3 1h59.2v12.6h-45.2v20.8h40.1V47h-40.1v21.5h45.8v12.6h-59.8V1z"/></g><g id="XMLID_236_"><path id="XMLID_326_" class="st2" d="M1.5 143.1h12.1L53.3 192v-48.8h12.8v70.6H55.2l-40.9-50.3v50.3H1.5v-70.7z"/><path id="XMLID_308_" class="st2" d="M92.4 178.7v-.2c0-19.9 16-36.5 38.8-36.5s38.6 16.5 38.6 36.3v.2c0 19.9-16 36.5-38.8 36.5s-38.6-16.5-38.6-36.3zm63.8 0v-.2c0-13.7-10.5-25.1-25.2-25.1s-24.9 11.2-24.9 24.9v.2c0 13.7 10.5 25 25.2 25 14.6 0 24.9-11.1 24.9-24.8z"/><path id="XMLID_302_" class="st2" d="M210.3 154.6h-23.5v-11.5h60.1v11.5h-23.5v59.1h-13.1v-59.1z"/><path id="XMLID_280_" class="st2" d="M271.3 143.1h13v29.4h35.3v-29.4h13v70.6h-13V184h-35.3v29.8h-13v-70.7z"/><path id="XMLID_276_" class="st2" d="M363 143.1h13v70.6h-13v-70.6z"/><path id="XMLID_272_" class="st2" d="M406.3 143.1h12.1l39.6 48.8v-48.8h12.8v70.6h-10.9L419 163.4v50.3h-12.8v-70.6h.1z"/><path id="XMLID_262_" class="st2" d="M497.2 178.7v-.2c0-19.8 15.8-36.5 38.2-36.5 12.9 0 20.9 3.4 28.4 9.6l-8.3 9.4c-5.7-4.6-11.3-7.6-20.8-7.6-13.6 0-24 11.4-24 24.9v.2c0 14.5 10.1 25.2 25.2 25.2 7 0 13.3-2.1 17.9-5.3v-13.2h-19v-10.8h31.6V204c-7.3 6-17.8 11-30.9 11-23 0-38.3-15.8-38.3-36.3z"/></g><g id="XMLID_133_" class="st0"><path id="XMLID_195_" class="st1" d="M1 276.5h15.5v70.9h46.6v13.5H1v-84.4z"/><path id="XMLID_168_" class="st1" d="M92.9 276.5h15.5v84.4H92.9v-84.4z"/><path id="XMLID_154_" class="st1" d="M144.7 276.5h15.5V319l42.2-42.5h19.2l-36.9 36.3 38.6 48.1h-19l-30.2-38-13.7 13.5v24.5h-15.5v-84.4h-.2z"/><path id="XMLID_147_" class="st1" d="M249.2 276.5h65.7v13.3h-50v22h44.4V325h-44.4v22.7h50.8V361h-66.3v-84.5h-.2z"/><path id="XMLID_136_" class="st1" d="M395.8 325.1v-48.6h15.5v48c0 15.7 8.5 24 22.3 24 13.7 0 22.2-7.8 22.2-23.4v-48.6h15.5v47.9c0 25.2-14.9 37.9-38.1 37.9-22.7-.1-37.4-12.7-37.4-37.2z"/><path id="XMLID_134_" class="st1" d="M499.7 348.6L509 338c8.5 7 17.1 11 28 11 9.7 0 15.7-4.3 15.7-10.6v-.2c0-6-3.6-9.3-20-12.9-18.9-4.3-29.5-9.6-29.5-25.2v-.2c0-14.5 12.7-24.5 30.2-24.5 12.9 0 23.2 3.7 32.1 10.6l-8.4 11.2c-8-5.7-15.9-8.7-24-8.7-9.1 0-14.4 4.5-14.4 10v.2c0 6.5 4.1 9.4 21.1 13.3 18.8 4.3 28.3 10.7 28.3 24.7v.2c0 15.8-13 25.2-31.7 25.2-13.3 0-26.1-4.4-36.7-13.5z"/></g><path class="st2" d="M1.5 143.4h56.3v11.4H14.9v18.9H53V185H14.8v19.5h43.6v11.4H1.5v-72.5zM149.3 142.4l-26.5 35.4 27.5 37.1h-15.7l-20-27.7-20 27.7H79.3l27.4-36.9-26.4-35.6H96l18.8 26.3 19-26.3h15.5zM200.4 142.8h12.4l33.4 73.1H232l-7.7-17.5h-35.9l-7.9 17.5H167l33.4-73.1zm19.1 44.3l-13.1-29-13 29h26.1zM261.9 179.8v-.2c0-20.6 16.1-37.5 39.2-37.5 14 0 22.5 4.7 29.7 11.3l-8.6 9.4c-6.1-5.4-12.6-9-21.3-9-14.5 0-25 11.4-25 25.6v.2c0 14.2 10.6 25.7 25 25.7 9.3 0 15.3-3.5 21.8-9.3l8.6 8.3c-8 7.9-16.7 12.8-30.8 12.8-22.1 0-38.6-16.4-38.6-37.3zM374.9 155.2h-24.1v-11.8h61.7v11.8h-24.1v60.7H375v-60.7h-.1zM437.3 143.4h13.4v60.9h39.9v11.6h-53.3v-72.5zM523.6 187.3l-30.2-43.9h15.8l21.2 32 21.5-32h15.3L537.1 187v28.9h-13.4v-28.6h-.1z"/></svg>