<svg version="1.1" id="Layer_1" xmlns="http://www.w3.org/2000/svg" x="0" y="0" viewBox="0 0 883.8 41" xml:space="preserve"><style type="text/css">.st0{fill:#fff}.st1{fill:#2d9598}.st2{fill:#f9a11b}.st3{fill:#ea204c}</style><g id="XMLID_1033_"><path class="st0" d="M6.9 15.5H1.1v-3H16v3h-5.8v15.4H6.9V15.5zM22 12.5h3.2v7.7H34v-7.7h3.2v18.4H34v-7.8h-8.8v7.8H22V12.5zM44.7 12.5h13.7v2.9H47.9v4.8h9.2v2.9h-9.2V28h10.5v2.9H44.7V12.5zM70.3 23.7L63 12.5h3.8l5.1 8.1 5.2-8.1h3.7l-7.3 11.1v7.3h-3.3v-7.2zM85.1 18.6c1.6-.3 2.4-1.1 2.3-2.5H86v-3.6h3.5v3.1c0 2.9-1.4 4.2-4.1 4.4l-.3-1.4zM96.1 12.5h8.2c2.3 0 4.1.7 5.3 1.8 1 1 1.5 2.4 1.5 4v.1c0 3-1.8 4.8-4.4 5.6l5 7h-3.8l-4.5-6.4h-4.1V31h-3.2V12.5zm8 9.2c2.3 0 3.8-1.2 3.8-3.1v-.1c0-2-1.4-3.1-3.8-3.1h-4.7v6.2h4.7zM117.8 12.5h13.7v2.9H121v4.8h9.2v2.9H121V28h10.5v2.9h-13.8V12.5zM148.5 12.5h3l9.9 12.7V12.5h3.2v18.4h-2.7l-10.2-13.1v13.1h-3.2V12.5zM171.1 21.8c0-5.2 4-9.6 9.7-9.6 5.7 0 9.6 4.3 9.6 9.5v.1c0 5.2-4 9.5-9.7 9.5-5.6 0-9.6-4.3-9.6-9.5zm15.9 0c0-3.6-2.6-6.6-6.3-6.6-3.7 0-6.2 2.9-6.2 6.5v.1c0 3.6 2.6 6.5 6.3 6.5 3.6 0 6.2-2.9 6.2-6.5zM200.5 15.5h-5.8v-3h14.9v3h-5.8v15.4h-3.3V15.5zM215.6 12.5h3.2v7.7h8.8v-7.7h3.2v18.4h-3.2v-7.8h-8.8v7.8h-3.2V12.5zM238.4 12.5h3.2v18.4h-3.2V12.5zM249.2 12.5h3l9.9 12.7V12.5h3.2v18.4h-2.7l-10.2-13.1v13.1h-3.2V12.5zM271.8 21.8c0-5.2 3.9-9.6 9.5-9.6 3.2 0 5.2.9 7.1 2.5l-2.1 2.4c-1.4-1.2-2.8-2-5.2-2-3.4 0-6 3-6 6.5v.1c0 3.8 2.5 6.6 6.3 6.6 1.7 0 3.3-.6 4.4-1.4v-3.4h-4.7v-2.8h7.8v7.7c-1.8 1.6-4.4 2.9-7.7 2.9-5.6 0-9.4-4.1-9.4-9.5zM306.4 12.5h3.2V28h9.7v2.9h-12.9V12.5zM325.5 12.5h3.2v18.4h-3.2V12.5zM336.3 12.5h3.2v9.3l8.8-9.3h4l-7.7 7.9 8 10.5h-3.9l-6.3-8.3-2.9 2.9v5.3h-3.2V12.5zM358 12.5h13.7v2.9h-10.4v4.8h9.2v2.9h-9.2V28h10.5v2.9H358V12.5zM388.5 23.1V12.5h3.2V23c0 3.4 1.8 5.2 4.7 5.2 2.9 0 4.6-1.7 4.6-5.1V12.5h3.2V23c0 5.5-3.1 8.3-7.9 8.3-4.7-.1-7.8-2.8-7.8-8.2zM410.1 28.3L412 26c1.8 1.5 3.6 2.4 5.8 2.4 2 0 3.3-.9 3.3-2.3V26c0-1.3-.7-2-4.2-2.8-3.9-.9-6.1-2.1-6.1-5.5v-.1c0-3.2 2.6-5.3 6.3-5.3 2.7 0 4.8.8 6.7 2.3l-1.7 2.4c-1.7-1.2-3.3-1.9-5-1.9-1.9 0-3 1-3 2.2v.1c0 1.4.8 2.1 4.4 2.9 3.9.9 5.9 2.3 5.9 5.4v.1c0 3.4-2.7 5.5-6.6 5.5-2.8-.1-5.5-1.1-7.7-3zM466.9 15.5h-5.8v-3H476v3h-5.8v15.4h-3.3V15.5zM482.1 12.5h3.2v7.7h8.8v-7.7h3.2v18.4h-3.2v-7.8h-8.8v7.8h-3.2V12.5zM504.7 12.5h13.7v2.9H508v4.8h9.2v2.9H508V28h10.5v2.9h-13.8V12.5zM530.4 23.7l-7.3-11.2h3.8l5.1 8.1 5.2-8.1h3.7l-7.3 11.1v7.3h-3.3v-7.2zM545.1 18.6c1.6-.3 2.4-1.1 2.3-2.5H546v-3.6h3.5v3.1c0 2.9-1.4 4.2-4.1 4.4l-.3-1.4zM556.1 12.5h8.2c2.3 0 4.1.7 5.3 1.8 1 1 1.5 2.4 1.5 4v.1c0 3-1.8 4.8-4.4 5.6l5 7h-3.8l-4.5-6.4h-4.1V31h-3.2V12.5zm8 9.2c2.3 0 3.8-1.2 3.8-3.1v-.1c0-2-1.4-3.1-3.8-3.1h-4.7v6.2h4.7zM577.8 12.5h13.7v2.9H581v4.8h9.2v2.9H581V28h10.5v2.9h-13.8V12.5zM608.6 12.5h13.7v2.9h-10.4v4.8h9.2v2.9h-9.2V28h10.5v2.9h-13.8V12.5zM644.4 12.5l-6.4 9 6.7 9.4h-3.8l-4.9-7-4.8 7h-3.7l6.7-9.4-6.4-9h3.8l4.6 6.7 4.6-6.7h3.6zM656.8 12.4h3l8.1 18.5h-3.4l-1.9-4.4h-8.7l-1.9 4.4h-3.3l8.1-18.5zm4.6 11.2l-3.2-7.4-3.2 7.4h6.4zM671.7 21.8c0-5.3 3.9-9.6 9.5-9.6 3.4 0 5.4 1.2 7.2 2.9l-2.1 2.4c-1.5-1.4-3.1-2.3-5.2-2.3-3.5 0-6.1 2.9-6.1 6.5v.1c0 3.6 2.6 6.5 6.1 6.5 2.3 0 3.7-.9 5.3-2.4l2.1 2.1c-1.9 2-4 3.3-7.5 3.3-5.3 0-9.3-4.2-9.3-9.5zM699.1 15.5h-5.8v-3h14.9v3h-5.8v15.4h-3.3V15.5zM714.2 12.5h3.2V28h9.7v2.9h-12.9V12.5zM735.2 23.7l-7.3-11.2h3.8l5.1 8.1 5.2-8.1h3.7l-7.3 11.1v7.3h-3.3v-7.2zM761.7 12.5h3.2V28h9.7v2.9h-12.9V12.5zM780.8 12.5h3.2v18.4h-3.2V12.5zM791.6 12.5h3.2v9.3l8.8-9.3h4l-7.7 7.9 8 10.5H804l-6.3-8.3-2.9 2.9v5.3h-3.2V12.5zM813.3 12.5H827v2.9h-10.4v4.8h9.2v2.9h-9.2V28h10.5v2.9h-13.8V12.5zM843.8 23.1V12.5h3.2V23c0 3.4 1.8 5.2 4.7 5.2 2.9 0 4.6-1.7 4.6-5.1V12.5h3.2V23c0 5.5-3.1 8.3-7.9 8.3-4.7-.1-7.8-2.8-7.8-8.2zM865.4 28.3l1.9-2.3c1.8 1.5 3.6 2.4 5.8 2.4 2 0 3.3-.9 3.3-2.3V26c0-1.3-.7-2-4.2-2.8-3.9-.9-6.1-2.1-6.1-5.5v-.1c0-3.2 2.6-5.3 6.3-5.3 2.7 0 4.8.8 6.7 2.3l-1.7 2.4c-1.7-1.2-3.3-1.9-5-1.9-1.9 0-3 1-3 2.2v.1c0 1.4.8 2.1 4.4 2.9 3.9.9 5.9 2.3 5.9 5.4v.1c0 3.4-2.7 5.5-6.6 5.5-2.8-.1-5.5-1.1-7.7-3z"/><g id="XMLID_1034_"><path id="XMLID_1037_" class="st1" d="M439.2 0h3v13.7h-3z"/><path id="XMLID_1036_" class="st2" d="M439.2 13.7h3v13.7h-3z"/><path id="XMLID_1035_" class="st3" d="M439.2 27.3h3V41h-3z"/></g></g></svg>