<?xml version="1.0" encoding="utf-8"?>
<!-- Generator: Adobe Illustrator 19.2.1, SVG Export Plug-In . SVG Version: 6.00 Build 0)  -->
<svg version="1.1" id="Layer_1" xmlns="http://www.w3.org/2000/svg" xmlns:xlink="http://www.w3.org/1999/xlink" x="0px" y="0px"
	 viewBox="0 0 418.6 19" style="enable-background:new 0 0 418.6 19;" xml:space="preserve">
<style type="text/css">
	.st0{fill:#FFFFFF;}
</style>
<g>
	<path class="st0" d="M5.8,3.3H0v-3h14.9v3H9.1v15.4H5.8V3.3z"/>
	<path class="st0" d="M21,0.3h3.2V8H33V0.3h3.2v18.4H33V11h-8.8v7.8H21V0.3z"/>
	<path class="st0" d="M43.6,0.3h13.7v2.9H46.9V8h9.2v2.9h-9.2v4.9h10.5v2.9H43.6V0.3z"/>
	<path class="st0" d="M69.3,11.5L62,0.3h3.8L71,8.4l5.2-8.1h3.7l-7.3,11.1v7.3h-3.3V11.5z"/>
	<path class="st0" d="M84,6.4c1.6-0.3,2.4-1.1,2.3-2.5h-1.4V0.3h3.5v3.1c0,2.9-1.4,4.2-4.1,4.4L84,6.4z"/>
	<path class="st0" d="M95.1,0.3h8.2c2.3,0,4.1,0.7,5.3,1.8c1,1,1.5,2.4,1.5,4v0.1c0,3-1.8,4.8-4.4,5.6l5,7h-3.8l-4.5-6.4h-4.1v6.4
		h-3.2V0.3z M103,9.4c2.3,0,3.8-1.2,3.8-3.1V6.3c0-2-1.4-3.1-3.8-3.1h-4.7v6.2H103z"/>
	<path class="st0" d="M116.7,0.3h13.7v2.9h-10.4V8h9.2v2.9h-9.2v4.9h10.5v2.9h-13.8V0.3z"/>
	<path class="st0" d="M147.5,0.3h13.7v2.9h-10.4V8h9.2v2.9h-9.2v4.9h10.5v2.9h-13.8V0.3z"/>
	<path class="st0" d="M183.3,0.3l-6.4,9l6.7,9.4h-3.8l-4.9-7l-4.8,7h-3.7l6.7-9.4l-6.4-9h3.8L175,7l4.6-6.7H183.3z"/>
	<path class="st0" d="M195.7,0.2h3l8.1,18.5h-3.4l-1.9-4.4h-8.7l-1.9,4.4h-3.3L195.7,0.2z M200.3,11.4l-3.2-7.4l-3.2,7.4H200.3z"/>
	<path class="st0" d="M210.6,9.6L210.6,9.6c0-5.3,3.9-9.6,9.5-9.6c3.4,0,5.4,1.2,7.2,2.9l-2.1,2.4c-1.5-1.4-3.1-2.3-5.2-2.3
		c-3.5,0-6.1,2.9-6.1,6.5v0.1c0,3.6,2.6,6.5,6.1,6.5c2.3,0,3.7-0.9,5.3-2.4l2.1,2.1c-1.9,2-4,3.3-7.5,3.3
		C214.6,19,210.6,14.9,210.6,9.6z"/>
	<path class="st0" d="M238,3.3h-5.8v-3h14.9v3h-5.8v15.4H238V3.3z"/>
	<path class="st0" d="M253.2,0.3h3.2v15.5h9.7v2.9h-12.9V0.3z"/>
	<path class="st0" d="M274.1,11.5l-7.3-11.2h3.8l5.1,8.1l5.2-8.1h3.7l-7.3,11.1v7.3h-3.3V11.5z"/>
	<path class="st0" d="M300.6,0.3h3.2v15.5h9.7v2.9h-12.9V0.3z"/>
	<path class="st0" d="M319.7,0.3h3.2v18.4h-3.2V0.3z"/>
	<path class="st0" d="M330.5,0.3h3.2v9.3l8.8-9.3h4l-7.7,7.9l8,10.5h-3.9l-6.3-8.3l-2.9,2.9v5.3h-3.2V0.3z"/>
	<path class="st0" d="M352.3,0.3h13.7v2.9h-10.4V8h9.2v2.9h-9.2v4.9h10.5v2.9h-13.8V0.3z"/>
	<path class="st0" d="M382.8,10.9V0.3h3.2v10.5c0,3.4,1.8,5.2,4.7,5.2c2.9,0,4.6-1.7,4.6-5.1V0.3h3.2v10.4c0,5.5-3.1,8.3-7.9,8.3
		C385.8,19,382.8,16.3,382.8,10.9z"/>
	<path class="st0" d="M404.4,16l1.9-2.3c1.8,1.5,3.6,2.4,5.8,2.4c2,0,3.3-0.9,3.3-2.3v-0.1c0-1.3-0.7-2-4.2-2.8
		c-3.9-0.9-6.1-2.1-6.1-5.5V5.4c0-3.2,2.6-5.3,6.3-5.3c2.7,0,4.8,0.8,6.7,2.3l-1.7,2.4c-1.7-1.2-3.3-1.9-5-1.9c-1.9,0-3,1-3,2.2v0.1
		c0,1.4,0.8,2.1,4.4,2.9c3.9,0.9,5.9,2.3,5.9,5.4v0.1c0,3.4-2.7,5.5-6.6,5.5C409.2,19,406.6,18,404.4,16z"/>
</g>
</svg>
