<?xml version="1.0" encoding="utf-8"?>
<!-- Generator: Adobe Illustrator 19.2.1, SVG Export Plug-In . SVG Version: 6.00 Build 0)  -->
<svg version="1.1" id="Layer_1" xmlns="http://www.w3.org/2000/svg" xmlns:xlink="http://www.w3.org/1999/xlink" x="0px" y="0px"
	 viewBox="0 0 423.3 19" style="enable-background:new 0 0 423.3 19;" xml:space="preserve">
<style type="text/css">
	.st0{fill:#FFFFFF;}
</style>
<g>
	<path class="st0" d="M5.8,3.3H0v-3h14.9v3H9.1v15.4H5.8V3.3z"/>
	<path class="st0" d="M21,0.3h3.2V8H33V0.3h3.2v18.4H33V11h-8.8v7.8H21V0.3z"/>
	<path class="st0" d="M43.6,0.3h13.7v2.9H46.9V8h9.2v2.9h-9.2v4.9h10.5v2.9H43.6V0.3z"/>
	<path class="st0" d="M69.3,11.5L62,0.3h3.8L71,8.4l5.2-8.1h3.7l-7.3,11.1v7.3h-3.3V11.5z"/>
	<path class="st0" d="M84,6.4c1.6-0.3,2.4-1.1,2.3-2.5h-1.4V0.3h3.5v3.1c0,2.9-1.4,4.2-4.1,4.4L84,6.4z"/>
	<path class="st0" d="M95.1,0.3h8.2c2.3,0,4.1,0.7,5.3,1.8c1,1,1.5,2.4,1.5,4v0.1c0,3-1.8,4.8-4.4,5.6l5,7h-3.8l-4.5-6.4h-4.1v6.4
		h-3.2V0.3z M103,9.4c2.3,0,3.8-1.2,3.8-3.1V6.3c0-2-1.4-3.1-3.8-3.1h-4.7v6.2H103z"/>
	<path class="st0" d="M116.7,0.3h13.7v2.9h-10.4V8h9.2v2.9h-9.2v4.9h10.5v2.9h-13.8V0.3z"/>
	<path class="st0" d="M147.5,0.3h3l9.9,12.7V0.3h3.2v18.4h-2.7L150.7,5.6v13.1h-3.2V0.3z"/>
	<path class="st0" d="M170.1,9.6L170.1,9.6c0-5.2,4-9.6,9.7-9.6c5.7,0,9.6,4.3,9.6,9.5v0.1c0,5.2-4,9.5-9.7,9.5
		C174,19,170.1,14.8,170.1,9.6z M185.9,9.6L185.9,9.6c0-3.6-2.6-6.6-6.3-6.6c-3.7,0-6.2,2.9-6.2,6.5v0.1c0,3.6,2.6,6.5,6.3,6.5
		C183.4,16,185.9,13.2,185.9,9.6z"/>
	<path class="st0" d="M199.4,3.3h-5.8v-3h14.9v3h-5.8v15.4h-3.3V3.3z"/>
	<path class="st0" d="M214.6,0.3h3.2V8h8.8V0.3h3.2v18.4h-3.2V11h-8.8v7.8h-3.2V0.3z"/>
	<path class="st0" d="M237.4,0.3h3.2v18.4h-3.2V0.3z"/>
	<path class="st0" d="M248.2,0.3h3L261,13V0.3h3.2v18.4h-2.7L251.3,5.6v13.1h-3.2V0.3z"/>
	<path class="st0" d="M270.8,9.6L270.8,9.6c0-5.2,3.9-9.6,9.5-9.6c3.2,0,5.2,0.9,7.1,2.5l-2.1,2.4c-1.4-1.2-2.8-2-5.2-2
		c-3.4,0-6,3-6,6.5v0.1c0,3.8,2.5,6.6,6.3,6.6c1.7,0,3.3-0.6,4.4-1.4v-3.4h-4.7V8.4h7.8v7.7c-1.8,1.6-4.4,2.9-7.7,2.9
		C274.6,19,270.8,14.9,270.8,9.6z"/>
	<path class="st0" d="M305.4,0.3h3.2v15.5h9.7v2.9h-12.9V0.3z"/>
	<path class="st0" d="M324.5,0.3h3.2v18.4h-3.2V0.3z"/>
	<path class="st0" d="M335.2,0.3h3.2v9.3l8.8-9.3h4l-7.7,7.9l8,10.5h-3.9l-6.3-8.3l-2.9,2.9v5.3h-3.2V0.3z"/>
	<path class="st0" d="M357,0.3h13.7v2.9h-10.4V8h9.2v2.9h-9.2v4.9h10.5v2.9H357V0.3z"/>
	<path class="st0" d="M387.5,10.9V0.3h3.2v10.5c0,3.4,1.8,5.2,4.7,5.2c2.9,0,4.6-1.7,4.6-5.1V0.3h3.2v10.4c0,5.5-3.1,8.3-7.9,8.3
		C390.5,19,387.5,16.3,387.5,10.9z"/>
	<path class="st0" d="M409.1,16l1.9-2.3c1.8,1.5,3.6,2.4,5.8,2.4c2,0,3.3-0.9,3.3-2.3v-0.1c0-1.3-0.7-2-4.2-2.8
		c-3.9-0.9-6.1-2.1-6.1-5.5V5.4c0-3.2,2.6-5.3,6.3-5.3c2.7,0,4.8,0.8,6.7,2.3L421,4.8c-1.7-1.2-3.3-1.9-5-1.9c-1.9,0-3,1-3,2.2v0.1
		c0,1.4,0.8,2.1,4.4,2.9c3.9,0.9,5.9,2.3,5.9,5.4v0.1c0,3.4-2.7,5.5-6.6,5.5C413.9,19,411.3,18,409.1,16z"/>
</g>
</svg>
