<?xml version="1.0" encoding="utf-8"?>
<!-- Generator: Adobe Illustrator 19.2.1, SVG Export Plug-In . SVG Version: 6.00 Build 0)  -->
<svg version="1.1" id="Layer_1" xmlns="http://www.w3.org/2000/svg" xmlns:xlink="http://www.w3.org/1999/xlink" x="0px" y="0px"
	 viewBox="0 0 569.3 363.2" style="enable-background:new 0 0 569.3 363.2;" xml:space="preserve">
<style type="text/css">
	.st0{fill:none;stroke:#A8216B;stroke-width:2;stroke-miterlimit:10;}
</style>
<g id="XMLID_38_">
	<g id="XMLID_328_">
		<path id="XMLID_448_" class="st0" d="M26.3,14H1V1h64.8v13H40.5v66.9H26.3V14z"/>
		<path id="XMLID_446_" class="st0" d="M92.1,1h14v33.2h38.1V1h14v79.9h-14V47.2h-38.1v33.7h-14V1z"/>
		<path id="XMLID_439_" class="st0" d="M190.2,1h59.2v12.6h-45.2v20.8h40.1V47h-40.1v21.5H250v12.6h-59.8V1z"/>
		<path id="XMLID_437_" class="st0" d="M301.6,49.4L269.9,1h16.7l22.3,35.3L331.4,1h16.1l-31.7,48.1v31.8h-14.2L301.6,49.4
			L301.6,49.4z"/>
		<path id="XMLID_432_" class="st0" d="M365.4,27.4c7-1.3,10.3-4.8,9.8-10.7h-5.9V1h15.2v13.4c0,12.7-6,18-17.6,18.9L365.4,27.4z"/>
		<path id="XMLID_352_" class="st0" d="M413.4,1H449c10,0,17.9,3,23.1,8c4.2,4.3,6.6,10.3,6.6,17.2v0.2c0,13.1-7.9,21-18.9,24.2
			l21.6,30.2h-16.7L445,53h-17.6v27.9h-14V1z M447.9,40.6c10,0,16.4-5.3,16.4-13.4V27c0-8.6-6.2-13.2-16.6-13.2h-20.4v26.8H447.9z"
			/>
		<path id="XMLID_330_" class="st0" d="M507.3,1h59.2v12.6h-45.2v20.8h40.1V47h-40.1v21.5h45.8v12.6h-59.8V1z"/>
	</g>
	<g id="XMLID_236_">
		<path id="XMLID_326_" class="st0" d="M27.5,143.1H39L76.9,192v-48.8h12.2v70.6H78.7l-39-50.3v50.3H27.5V143.1z"/>
		<path id="XMLID_308_" class="st0" d="M114.2,178.7v-0.2c0-19.9,15.3-36.5,37-36.5s36.8,16.5,36.8,36.3v0.2
			c0,19.9-15.3,36.5-37,36.5S114.2,198.5,114.2,178.7z M175.1,178.7v-0.2c0-13.7-10-25.1-24-25.1s-23.8,11.2-23.8,24.9v0.2
			c0,13.7,10,25,24,25C165.3,203.5,175.1,192.4,175.1,178.7z"/>
		<path id="XMLID_302_" class="st0" d="M226.7,154.6h-22.4v-11.5h57.3v11.5h-22.4v59.1h-12.5L226.7,154.6L226.7,154.6z"/>
		<path id="XMLID_280_" class="st0" d="M284.9,143.1h12.4v29.4H331v-29.4h12.4v70.6H331V184h-33.7v29.8h-12.4V143.1z"/>
		<path id="XMLID_276_" class="st0" d="M372.4,143.1h12.4v70.6h-12.4V143.1z"/>
		<path id="XMLID_272_" class="st0" d="M413.7,143.1h11.5l37.8,48.8v-48.8h12.2v70.6h-10.4l-39-50.3v50.3h-12.2v-70.6H413.7z"/>
		<path id="XMLID_262_" class="st0" d="M500.4,178.7v-0.2c0-19.8,15.1-36.5,36.4-36.5c12.3,0,19.9,3.4,27.1,9.6L556,161
			c-5.4-4.6-10.8-7.6-19.8-7.6c-13,0-22.9,11.4-22.9,24.9v0.2c0,14.5,9.6,25.2,24,25.2c6.7,0,12.7-2.1,17.1-5.3v-13.2h-18.1v-10.8
			h30.1V204c-7,6-17,11-29.5,11C515,215,500.4,199.2,500.4,178.7z"/>
	</g>
	<g id="XMLID_133_">
		<path id="XMLID_195_" class="st0" d="M27.5,276.5h14.8v70.9h44.4v13.5H27.5V276.5z"/>
		<path id="XMLID_168_" class="st0" d="M115.1,276.5h14.8v84.4h-14.8C115.1,360.9,115.1,276.5,115.1,276.5z"/>
		<path id="XMLID_154_" class="st0" d="M164.5,276.5h14.8V319l40.2-42.5h18.3l-35.2,36.3l36.8,48.1h-18.1l-28.8-38l-13.1,13.5v24.5
			h-14.8L164.5,276.5L164.5,276.5z"/>
		<path id="XMLID_147_" class="st0" d="M264.1,276.5h62.6v13.3H279v22h42.3V325H279v22.7h48.4V361h-63.2L264.1,276.5L264.1,276.5z"
			/>
		<path id="XMLID_136_" class="st0" d="M403.9,325.1v-48.6h14.8v48c0,15.7,8.1,24,21.3,24c13.1,0,21.2-7.8,21.2-23.4v-48.6H476v47.9
			c0,25.2-14.2,37.9-36.3,37.9C417.9,362.2,403.9,349.6,403.9,325.1z"/>
		<path id="XMLID_134_" class="st0" d="M502.9,348.6l8.9-10.6c8.1,7,16.3,11,26.7,11c9.2,0,15-4.3,15-10.6v-0.2
			c0-6-3.4-9.3-19.1-12.9c-18-4.3-28.1-9.6-28.1-25.2v-0.2c0-14.5,12.1-24.5,28.8-24.5c12.3,0,22.1,3.7,30.6,10.6l-8,11.2
			c-7.6-5.7-15.2-8.7-22.9-8.7c-8.7,0-13.7,4.5-13.7,10v0.2c0,6.5,3.9,9.4,20.1,13.3c17.9,4.3,27,10.7,27,24.7v0.2
			c0,15.8-12.4,25.2-30.2,25.2C525.2,362.1,513,357.7,502.9,348.6z"/>
	</g>
</g>
<path class="st0" d="M27,143.4h53.8v11.4h-41v18.9h36.4V185H39.7v19.5h41.6v11.4H27V143.4z"/>
<path class="st0" d="M168.1,142.4l-25.3,35.4l26.3,37.1h-15L135,187.2l-19.1,27.7h-14.6l26.2-36.9l-25.2-35.6h15l18,26.3l18.1-26.3
	H168.1z"/>
<path class="st0" d="M216.9,142.8h11.8l31.9,73.1h-13.5l-7.4-17.5h-34.3l-7.5,17.5H185L216.9,142.8z M235.2,187.1l-12.5-29l-12.4,29
	H235.2z"/>
<path class="st0" d="M275.7,179.8v-0.2c0-20.6,15.4-37.5,37.4-37.5c13.4,0,21.5,4.7,28.4,11.3l-8.2,9.4c-5.8-5.4-12-9-20.3-9
	c-13.8,0-23.9,11.4-23.9,25.6v0.2c0,14.2,10.1,25.7,23.9,25.7c8.9,0,14.6-3.5,20.8-9.3l8.2,8.3c-7.6,7.9-15.9,12.8-29.4,12.8
	C291.4,217.1,275.7,200.7,275.7,179.8z"/>
<path class="st0" d="M383.6,155.2h-23v-11.8h58.9v11.8h-23v60.7h-12.8v-60.7H383.6z"/>
<path class="st0" d="M443.2,143.4H456v60.9h38.1v11.6h-50.9V143.4z"/>
<path class="st0" d="M525.6,187.3l-28.8-43.9h15.1l20.2,32l20.5-32h14.6L538.5,187v28.9h-12.8v-28.6H525.6z"/>
</svg>
